# xmcd CD database file
#
# Track frame offsets:
#	150
#	15914
#	30600
#	46104
#	60225
#
# Disc length: 1018 seconds
#
# Revision: 0
# Processed by: cddbd v1.5.2PL0 Copyright (c) Steve Scherf et al.
# Submitted via: CDex 1.51
#
DISCID=2903f805
DTITLE=SaraBeth - Full Speed Ahead
DYEAR=2016
DGENRE=Country
TTITLE0=Somebody Who Is
TTITLE1=Keep On Keepin' On
TTITLE2=Song About You
TTITLE3=Windshield/Rearview
TTITLE4=I Want It That Way
EXTD=YEAR: 2016
EXTT0=
EXTT1=
EXTT2=
EXTT3=
EXTT4=
PLAYORDER=
